<svg xmlns="http://www.w3.org/2000/svg" width="26" height="26" viewBox="0 0 26 26"><defs><style>.a{opacity:0.5;}.b{fill:none;}</style></defs><g class="a" transform="translate(-27 -84)"><rect class="b" width="26" height="26" transform="translate(27 84)"/><g transform="translate(31 82.972)"><g transform="translate(0 6.028)"><path d="M98.682,350.322a2.029,2.029,0,1,0,2.029,2.029A2.029,2.029,0,0,0,98.682,350.322Zm0,3.157a1.127,1.127,0,1,1,1.127-1.127A1.127,1.127,0,0,1,98.682,353.479Z" transform="translate(-92.872 -337.381)"/><path d="M297.213,350.322a2.029,2.029,0,1,0,2.029,2.029A2.029,2.029,0,0,0,297.213,350.322Zm0,3.157a1.127,1.127,0,1,1,1.127-1.127A1.127,1.127,0,0,1,297.213,353.479Z" transform="translate(-283.883 -337.381)"/><path d="M17.915,8.628a.537.537,0,0,0-.334-.155L3.988,8.3,3.612,7.231a1.915,1.915,0,0,0-1.8-1.2H.418a.389.389,0,1,0,0,.776h1.4a1.081,1.081,0,0,1,1,.679l2.652,7.432-.209.446a1.75,1.75,0,0,0,.188,1.688,1.979,1.979,0,0,0,1.566.815h8.122a.389.389,0,1,0,0-.776H7.016a1.084,1.084,0,0,1-.877-.466,1,1,0,0,1-.1-.931l.167-.349,8.79-.854a2.247,2.247,0,0,0,1.984-1.63l1-3.9A.312.312,0,0,0,17.915,8.628Zm-1.754,4.055a1.391,1.391,0,0,1-1.274,1.028L6.2,14.546,4.259,9.074l12.8.175Z" transform="translate(0 -6.028)"/></g></g></g></svg>